<svg xmlns="http://www.w3.org/2000/svg" width="496" height="439.591" viewBox="0 0 496 439.591">
  <path id="shopping-cart" d="M94.7,92.8l-.616.12H9a9,9,0,0,0-9,9v25a9,9,0,0,0,9,9H80.672l57.882,297.776a21.027,21.027,0,0,0,1.725,5.181,55.013,55.013,0,1,0,87.652,11.043H352.068a55.034,55.034,0,1,0,86.822-11.891q-.736-.736-1.5-1.442a21.513,21.513,0,0,0-19.89-29.667H177.154l-7.581-39H436.5a21.494,21.494,0,0,0,18.781-11.028,3.985,3.985,0,0,0,1.638-2.459l38.363-180.483a21.518,21.518,0,0,0-20.782-27.03h-345a21.71,21.71,0,0,0-2.849.187l-7.328-37.7a20.922,20.922,0,0,0-8.1-12.857A8.985,8.985,0,0,0,104,92.918h-.688a20.815,20.815,0,0,0-4.58-.509A21.117,21.117,0,0,0,94.7,92.8Zm40.274,97.12H447.927l-28.7,135H161.215ZM380,477.418a20.5,20.5,0,1,1,20.5,20.5A20.5,20.5,0,0,1,380,477.418Zm-220,0a20.5,20.5,0,1,1,20.5,20.5A20.5,20.5,0,0,1,160,477.418Z" transform="translate(0 -92.409)"/>
</svg>
